<svg width="40.959999084472656" height="54" viewBox="0 0 40.96 54" 
xmlns="http://www.w3.org/2000/svg">

<g 
id="svgGroup" 
fill-rule="evenodd"
font-size="9pt" 
stroke="#000"
stroke-width="0.5mm" 
stroke-linecap="round" 
fill="#000" 
style="stroke:#000;stroke-width:0.5mm;fill:#000">
<path class="svg-title-first-letter" 
d="M 11.88 54 Q 10.96 54 9.42 53.96 Q 7.88 53.92 6.12 53.84 Q 4.36 53.76 2.72 53.7 Q 1.08 53.64 0 53.56 A 181.538 181.538 0 0 1 1.084 47.869 A 351.025 351.025 0 0 1 1.18 47.4 Q 1.96 43.6 2.98 38.88 Q 4 34.16 5.18 29 Q 6.36 23.84 7.58 18.76 Q 8.8 13.68 9.96 9.14 Q 11.12 4.6 12.04 1.2 Q 15.56 0.72 19.36 0.36 Q 23.16 0 26.84 0 Q 28.8 0 30.76 0.12 Q 32.72 0.24 34.6 0.48 Q 35.4 4 36.18 8.66 A 271.917 271.917 0 0 1 37.56 18.055 A 413.194 413.194 0 0 1 37.76 19.6 Q 38.56 25.88 39.36 34.18 Q 40.16 42.48 40.96 53.28 Q 39.76 53.48 37.62 53.64 Q 35.48 53.8 33.16 53.9 Q 30.84 54 29.04 54 Q 28.96 52.84 28.88 51.22 Q 28.8 49.6 28.72 47.72 Q 28.64 45.84 28.56 43.94 Q 28.48 42.04 28.4 40.3 Q 28.32 38.56 28.28 37.28 Q 27 37.28 25.4 37.36 Q 23.8 37.44 22.12 37.54 Q 20.44 37.64 18.94 37.78 Q 17.44 37.92 16.32 38.04 Q 15.2 38.16 14.76 38.24 Q 14.12 41.2 13.54 44.18 Q 12.96 47.16 12.54 49.74 Q 12.12 52.32 11.88 54 Z M 16.24 28.56 Q 17.32 28.36 19.5 28.14 Q 21.68 27.92 24.06 27.76 Q 26.44 27.6 28 27.56 A 162.345 162.345 0 0 1 27.797 24.402 A 498.064 498.064 0 0 1 27.78 24.1 Q 27.64 21.64 27.46 18.7 Q 27.28 15.76 27.1 13.24 A 40.617 40.617 0 0 0 26.732 9.671 A 10.298 10.298 0 0 0 26.72 9.6 Q 26 9.6 24.58 9.68 Q 23.16 9.76 21.84 9.88 Q 20.52 10 19.96 10.04 Q 19.72 11.16 19.28 13.24 Q 18.84 15.32 18.32 17.96 Q 17.8 20.6 17.24 23.34 Q 16.68 26.08 16.24 28.56 Z" >
</path>
</g>
</svg>