<svg 
width="202.16000366210938"
 height="54"
  viewBox="0 0 202.16 58.613" 
  xmlns="http://www.w3.org/2000/svg">
  <g 
  id="svgGroup" 
  stroke-linecap="round"
   fill-rule="evenodd"
    font-size="9pt" 
    stroke="#000" 
    stroke-width="0.5mm" 
    fill="#000" 
    style="stroke:#000;stroke-width:0.5mm;fill:#000">
    <path d="M 11.88 58.44 Q 10.96 58.44 9.42 58.4 Q 7.88 58.36 6.12 58.28 Q 4.36 58.2 2.72 58.14 Q 1.08 58.08 0 58 A 181.538 181.538 0 0 1 1.084 52.309 A 351.025 351.025 0 0 1 1.18 51.84 Q 1.96 48.04 2.98 43.32 Q 4 38.6 5.18 33.44 Q 6.36 28.28 7.58 23.2 Q 8.8 18.12 9.96 13.58 Q 11.12 9.04 12.04 5.64 Q 15.56 5.16 19.36 4.8 Q 23.16 4.44 26.84 4.44 Q 28.8 4.44 30.76 4.56 Q 32.72 4.68 34.6 4.92 Q 35.4 8.44 36.18 13.1 A 271.917 271.917 0 0 1 37.56 22.495 A 413.194 413.194 0 0 1 37.76 24.04 Q 38.56 30.32 39.36 38.62 Q 40.16 46.92 40.96 57.72 Q 39.76 57.92 37.62 58.08 Q 35.48 58.24 33.16 58.34 Q 30.84 58.44 29.04 58.44 Q 28.96 57.28 28.88 55.66 Q 28.8 54.04 28.72 52.16 Q 28.64 50.28 28.56 48.38 Q 28.48 46.48 28.4 44.74 Q 28.32 43 28.28 41.72 Q 27 41.72 25.4 41.8 Q 23.8 41.88 22.12 41.98 Q 20.44 42.08 18.94 42.22 Q 17.44 42.36 16.32 42.48 Q 15.2 42.6 14.76 42.68 Q 14.12 45.64 13.54 48.62 Q 12.96 51.6 12.54 54.18 Q 12.12 56.76 11.88 58.44 Z M 84.56 58.2 Q 84.44 56.8 84.32 53.5 Q 84.2 50.2 84.04 45.66 Q 83.88 41.12 83.7 35.92 Q 83.52 30.72 83.4 25.44 Q 83.28 20.16 83.16 15.46 Q 83.04 10.76 82.96 7.14 Q 82.88 3.52 82.88 1.72 Q 83.44 1.6 86.38 1.1 Q 89.32 0.6 93.4 0 Q 93.4 2.68 93.48 7.08 Q 93.56 11.48 93.72 16.7 Q 93.88 21.92 94.16 27.04 Q 94.96 26.2 96.24 25.18 Q 97.52 24.16 99.24 23.22 Q 100.96 22.28 103 21.66 Q 105.04 21.04 107.2 21.04 Q 111.96 21.04 115.46 23.3 Q 118.96 25.56 120.86 29.86 A 25.271 25.271 0 0 1 122.758 39.862 A 38.379 38.379 0 0 1 122.76 40.24 Q 122.76 48.36 118.48 53.06 Q 114.2 57.76 106.8 57.76 Q 103.84 57.76 101.56 56.96 Q 99.28 56.16 97.76 55.12 Q 96.24 54.08 95.56 53.28 Q 95.64 54.04 95.68 55.18 Q 95.72 56.32 95.78 57.28 Q 95.84 58.24 95.84 58.6 Q 92.92 58.64 89.84 58.56 Q 86.76 58.48 84.56 58.2 Z M 202.16 50.08 Q 201.16 51.36 199.5 52.74 Q 197.84 54.12 195.52 55.26 Q 193.2 56.4 190.16 57.12 Q 187.12 57.84 183.36 57.84 Q 177.32 57.84 172.7 55.48 Q 168.08 53.12 165.5 48.54 A 22.248 22.248 0 0 1 162.93 38.036 A 34.373 34.373 0 0 1 162.92 37.2 Q 162.92 30.52 165.64 25.58 Q 168.36 20.64 173.2 17.92 Q 178.04 15.2 184.4 15.2 A 18.197 18.197 0 0 1 195.029 18.134 A 14.542 14.542 0 0 1 197.04 19.82 A 17.797 17.797 0 0 1 201.903 31.488 A 28.262 28.262 0 0 1 201.96 32.48 Q 202 33.88 201.94 35.06 Q 201.88 36.24 201.68 37.6 Q 201.12 37.56 199.28 37.5 Q 197.44 37.44 195.08 37.38 Q 192.72 37.32 190.54 37.28 Q 188.36 37.24 187.12 37.24 Q 183.48 37.24 179.88 37.58 Q 176.28 37.92 173.72 38.32 Q 173.72 39.16 173.84 39.96 Q 173.96 40.76 174.16 41.48 Q 174.76 43.4 176.22 44.78 Q 177.68 46.16 179.74 46.88 Q 181.8 47.6 184.08 47.6 Q 186.28 47.6 188.04 47 Q 189.8 46.4 191.18 45.48 Q 192.56 44.56 193.6 43.56 Q 194.64 42.56 195.44 41.8 Q 195.68 42 196.56 42.88 Q 197.44 43.76 198.56 45 Q 199.68 46.24 200.66 47.6 Q 201.64 48.96 202.16 50.08 Z M 77.08 16.2 L 74.88 27.36 Q 74 27 72.56 26.56 Q 71.12 26.12 69.2 26.12 Q 67.16 26.12 65.22 26.8 Q 63.28 27.48 61.64 28.72 Q 60 29.96 58.84 31.64 Q 59.28 34.16 59.78 37.9 Q 60.28 41.64 60.72 45.58 Q 61.16 49.52 61.46 52.76 A 66.174 66.174 0 0 1 61.755 57.144 A 19.71 19.71 0 0 1 61.76 57.56 Q 59.28 57.88 56.02 57.96 A 171.87 171.87 0 0 1 51.807 58.013 A 148.537 148.537 0 0 1 49.8 58 Q 49.8 54.52 49.62 50.28 Q 49.44 46.04 49.12 41.5 Q 48.8 36.96 48.32 32.5 Q 47.84 28.04 47.22 24.08 Q 46.6 20.12 45.88 17.12 Q 47.52 16.64 49.54 16.2 Q 51.56 15.76 53.24 15.48 Q 54.92 15.2 55.4 15.16 Q 55.88 16.36 56.48 18.54 Q 57.08 20.72 57.16 22.12 Q 58.16 20.24 60.2 18.6 Q 62.24 16.96 64.94 15.92 Q 67.64 14.88 70.6 14.88 Q 72.44 14.88 74.3 15.24 Q 76.16 15.6 77.08 16.2 Z M 160.24 16.2 L 158.04 27.36 Q 157.16 27 155.72 26.56 Q 154.28 26.12 152.36 26.12 Q 150.32 26.12 148.38 26.8 Q 146.44 27.48 144.8 28.72 Q 143.16 29.96 142 31.64 Q 142.44 34.16 142.94 37.9 Q 143.44 41.64 143.88 45.58 Q 144.32 49.52 144.62 52.76 A 66.174 66.174 0 0 1 144.915 57.144 A 19.71 19.71 0 0 1 144.92 57.56 Q 142.44 57.88 139.18 57.96 A 171.87 171.87 0 0 1 134.967 58.013 A 148.537 148.537 0 0 1 132.96 58 Q 132.96 54.52 132.78 50.28 Q 132.6 46.04 132.28 41.5 Q 131.96 36.96 131.48 32.5 Q 131 28.04 130.38 24.08 Q 129.76 20.12 129.04 17.12 Q 130.68 16.64 132.7 16.2 Q 134.72 15.76 136.4 15.48 Q 138.08 15.2 138.56 15.16 Q 139.04 16.36 139.64 18.54 Q 140.24 20.72 140.32 22.12 Q 141.32 20.24 143.36 18.6 Q 145.4 16.96 148.1 15.92 Q 150.8 14.88 153.76 14.88 Q 155.6 14.88 157.46 15.24 Q 159.32 15.6 160.24 16.2 Z M 95.28 45.12 Q 95.92 45.56 97.2 46.24 Q 98.48 46.92 100.24 47.44 Q 102 47.96 104.04 47.96 A 9.458 9.458 0 0 0 109.992 46.335 A 5.593 5.593 0 0 0 110.62 45.76 Q 112.68 43.56 112.68 39.56 Q 112.68 37 111.88 34.86 Q 111.08 32.72 109.44 31.42 Q 107.8 30.12 105.16 30.12 Q 102.48 30.12 100.44 31.1 Q 98.4 32.08 96.98 33.44 Q 95.56 34.8 94.72 35.92 Q 94.72 36.28 94.78 37.2 Q 94.84 38.12 94.9 39.32 Q 94.96 40.52 95.04 41.72 Q 95.12 42.92 95.18 43.84 Q 95.24 44.76 95.28 45.12 Z M 16.24 33 Q 17.32 32.8 19.5 32.58 Q 21.68 32.36 24.06 32.2 Q 26.44 32.04 28 32 A 162.345 162.345 0 0 1 27.797 28.842 A 498.064 498.064 0 0 1 27.78 28.54 Q 27.64 26.08 27.46 23.14 Q 27.28 20.2 27.1 17.68 A 40.617 40.617 0 0 0 26.732 14.111 A 10.298 10.298 0 0 0 26.72 14.04 Q 26 14.04 24.58 14.12 Q 23.16 14.2 21.84 14.32 Q 20.52 14.44 19.96 14.48 Q 19.72 15.6 19.28 17.68 Q 18.84 19.76 18.32 22.4 Q 17.8 25.04 17.24 27.78 Q 16.68 30.52 16.24 33 Z M 174.04 31.56 Q 176.2 31.2 179.26 30.92 Q 182.32 30.64 186.32 30.64 Q 188.44 30.64 190.02 30.7 Q 191.6 30.76 192.24 30.8 Q 192.24 29.8 191.96 28.64 Q 191.6 27.08 190.58 25.62 Q 189.56 24.16 187.92 23.24 Q 186.28 22.32 183.96 22.32 Q 181.08 22.32 178.88 23.54 Q 176.68 24.76 175.42 26.86 Q 174.16 28.96 174.04 31.56 Z"
class="svg-title-last-word">
</path>
</g>
</svg>