<svg 
width="260.40301513671875" 
height="54" viewBox="0 0 260.403 59.979" 
xmlns="http://www.w3.org/2000/svg">
<g 
id="svgGroup" 
stroke-linecap="round" 
fill-rule="evenodd" 
font-size="9pt" 
stroke="#000"
stroke-width="0.5mm"
fill="#7b8ec3" 
style="stroke:#000;stroke-width:0.5mm;fill:#7b8ec3"
>
<path 
d="M 50.003 29.96 L 41.323 24.36 Q 43.123 21.8 46.123 19.84 Q 49.123 17.88 52.963 16.78 Q 56.803 15.68 61.123 15.68 A 26.38 26.38 0 0 1 70.436 17.145 A 16.323 16.323 0 0 1 72.483 18.08 Q 76.883 20.48 78.963 24.64 Q 79.963 26.68 80.603 29.12 Q 81.243 31.56 81.443 34.88 Q 81.563 37.96 81.643 40.44 Q 81.723 42.92 81.843 44.96 Q 81.923 47.88 82.543 48.74 Q 83.163 49.6 84.243 49.6 Q 85.403 49.6 86.243 48.84 Q 87.083 48.08 87.283 46.76 L 91.323 53.48 Q 90.963 55.84 88.883 57.26 Q 86.803 58.68 83.803 58.68 Q 81.523 58.68 79.603 57.86 Q 77.683 57.04 76.463 55.7 Q 75.243 54.36 75.043 52.76 Q 74.323 54.24 72.203 55.72 Q 70.083 57.2 66.843 58.16 Q 63.603 59.12 59.403 59.12 Q 54.443 59.12 50.363 57.8 Q 46.283 56.48 43.863 53.46 Q 41.443 50.44 41.443 45.48 Q 41.443 40.52 44.223 37.46 Q 47.003 34.4 51.603 32.98 Q 56.203 31.56 61.683 31.56 Q 63.923 31.56 66.043 31.88 Q 68.163 32.2 69.763 32.66 Q 71.363 33.12 72.003 33.52 Q 71.923 32.36 71.563 31.12 Q 71.203 29.88 70.483 29 Q 69.203 27.04 66.863 25.72 Q 64.523 24.4 60.803 24.4 Q 57.003 24.4 54.203 26.08 Q 51.403 27.76 50.003 29.96 Z M 96.083 58.76 Q 95.963 57.36 95.843 54.06 Q 95.723 50.76 95.563 46.22 Q 95.403 41.68 95.223 36.48 Q 95.043 31.28 94.923 26 Q 94.803 20.72 94.683 16.02 Q 94.563 11.32 94.483 7.7 Q 94.403 4.08 94.403 2.28 Q 94.963 2.16 97.903 1.66 Q 100.843 1.16 104.923 0.56 Q 104.923 3.24 105.003 7.64 Q 105.083 12.04 105.243 17.26 Q 105.403 22.48 105.683 27.6 Q 106.483 26.76 107.763 25.74 Q 109.043 24.72 110.763 23.78 Q 112.483 22.84 114.523 22.22 Q 116.563 21.6 118.723 21.6 Q 123.483 21.6 126.983 23.86 Q 130.483 26.12 132.383 30.42 A 25.271 25.271 0 0 1 134.282 40.422 A 38.379 38.379 0 0 1 134.283 40.8 Q 134.283 48.92 130.003 53.62 Q 125.723 58.32 118.323 58.32 Q 115.363 58.32 113.083 57.52 Q 110.803 56.72 109.283 55.68 Q 107.763 54.64 107.083 53.84 Q 107.163 54.6 107.203 55.74 Q 107.243 56.88 107.303 57.84 Q 107.363 58.8 107.363 59.16 Q 104.443 59.2 101.363 59.12 Q 98.283 59.04 96.083 58.76 Z M 249.123 58.28 Q 249.083 57.68 249.043 56.52 Q 249.003 55.36 248.983 54.18 Q 248.963 53 248.963 52.36 Q 248.563 52.96 247.563 53.96 Q 246.563 54.96 244.903 55.96 Q 243.243 56.96 240.843 57.66 Q 238.443 58.36 235.203 58.36 Q 230.083 58.36 226.383 55.94 Q 222.683 53.52 220.723 49.32 Q 218.763 45.12 218.763 39.76 Q 218.763 34.56 220.743 30.08 Q 222.723 25.6 226.703 22.82 Q 230.683 20.04 236.683 20.04 Q 239.883 20.04 242.463 20.76 Q 245.043 21.48 246.823 22.52 Q 248.603 23.56 249.323 24.56 Q 249.443 22.48 249.623 19.72 Q 249.803 16.96 250.043 13.96 Q 250.283 10.96 250.503 8.24 Q 250.723 5.52 250.923 3.54 Q 251.123 1.56 251.203 0.84 Q 253.283 0.84 255.863 1.06 Q 258.443 1.28 260.403 1.8 Q 259.683 11 259.303 20.18 Q 258.923 29.36 258.783 38.86 Q 258.643 48.36 258.643 58.6 Q 257.803 58.6 255.943 58.56 Q 254.083 58.52 252.143 58.44 Q 250.203 58.36 249.123 58.28 Z M 18.071 58.588 A 9.984 9.984 0 0 0 21.603 56.28 Q 21.483 55.92 20.963 54.72 Q 20.443 53.52 19.783 52.04 Q 19.123 50.56 18.563 49.32 Q 18.003 48.08 17.723 47.64 Q 17.163 48.72 16.283 49.38 Q 15.403 50.04 13.963 50.04 Q 12.203 50.04 11.323 48.52 Q 10.443 47 10.183 44.58 Q 9.923 42.16 9.923 39.44 Q 9.923 37.2 10.023 33.68 Q 10.123 30.16 10.323 25.94 Q 10.523 21.72 10.743 17.32 Q 10.963 12.92 11.183 8.78 Q 11.403 4.64 11.603 1.36 Q 10.043 1.2 8.683 1.12 Q 7.323 1.04 5.923 1.04 Q 3.803 1.04 1.283 1.24 Q 1.123 4.2 0.943 7.9 Q 0.763 11.6 0.603 15.74 Q 0.443 19.88 0.303 24.24 Q 0.163 28.6 0.083 32.94 Q 0.003 37.28 0.003 41.32 Q 0.003 46.88 0.823 51.08 Q 1.643 55.28 4.063 57.62 Q 6.483 59.96 11.283 59.96 Q 14.883 59.96 17.723 58.74 A 24.932 24.932 0 0 0 18.071 58.588 Z M 218.603 16.76 L 216.403 27.92 Q 215.523 27.56 214.083 27.12 Q 212.643 26.68 210.723 26.68 Q 208.683 26.68 206.743 27.36 Q 204.803 28.04 203.163 29.28 Q 201.523 30.52 200.363 32.2 Q 200.803 34.72 201.303 38.46 Q 201.803 42.2 202.243 46.14 Q 202.683 50.08 202.983 53.32 A 66.174 66.174 0 0 1 203.279 57.704 A 19.71 19.71 0 0 1 203.283 58.12 Q 200.803 58.44 197.543 58.52 A 171.87 171.87 0 0 1 193.33 58.574 A 148.537 148.537 0 0 1 191.323 58.56 Q 191.323 55.08 191.143 50.84 Q 190.963 46.6 190.643 42.06 Q 190.323 37.52 189.843 33.06 Q 189.363 28.6 188.743 24.64 Q 188.123 20.68 187.403 17.68 Q 189.043 17.2 191.063 16.76 Q 193.083 16.32 194.763 16.04 Q 196.443 15.76 196.923 15.72 Q 197.403 16.92 198.003 19.1 Q 198.603 21.28 198.683 22.68 Q 199.683 20.8 201.723 19.16 Q 203.763 17.52 206.463 16.48 Q 209.163 15.44 212.123 15.44 Q 213.963 15.44 215.823 15.8 Q 217.683 16.16 218.603 16.76 Z M 162.523 59.4 Q 151.963 59.4 146.723 53.7 Q 141.483 48 141.483 37.2 A 24.763 24.763 0 0 1 143.551 26.626 A 17.679 17.679 0 0 1 144.183 25.4 Q 146.883 20.64 151.703 18.22 Q 156.523 15.8 162.843 15.8 A 18.724 18.724 0 0 1 173.432 18.616 A 14.67 14.67 0 0 1 173.703 18.8 Q 178.003 21.8 180.143 27.12 Q 182.283 32.44 182.283 39.44 Q 182.283 45.48 179.963 49.96 Q 177.643 54.44 173.243 56.92 Q 168.843 59.4 162.523 59.4 Z M 162.123 49.36 Q 164.683 49.36 166.583 48.46 Q 168.483 47.56 169.763 45.94 Q 171.043 44.32 171.663 42.2 A 16.029 16.029 0 0 0 172.283 37.68 Q 172.283 33.68 171.163 30.6 Q 170.043 27.52 167.823 25.78 Q 165.603 24.04 162.283 24.04 Q 158.843 24.04 156.583 25.76 Q 154.323 27.48 153.243 30.36 Q 152.163 33.24 152.163 36.64 Q 152.163 42.2 154.703 45.78 Q 157.243 49.36 162.123 49.36 Z M 238.083 48.16 Q 240.163 48.16 241.863 47.6 Q 243.563 47.04 244.903 46.18 Q 246.243 45.32 247.203 44.38 Q 248.163 43.44 248.723 42.64 L 248.723 40.44 Q 248.723 39.08 248.743 37.6 Q 248.763 36.12 248.783 34.84 Q 248.803 33.56 248.843 32.88 Q 247.963 32.04 246.303 31.18 Q 244.643 30.32 242.583 29.74 Q 240.523 29.16 238.323 29.16 Q 233.803 29.16 231.343 31.82 Q 228.883 34.48 228.883 38.88 Q 228.883 43.44 231.263 45.8 Q 233.643 48.16 238.083 48.16 Z M 106.803 45.68 Q 107.443 46.12 108.723 46.8 Q 110.003 47.48 111.763 48 Q 113.523 48.52 115.563 48.52 A 9.458 9.458 0 0 0 121.515 46.896 A 5.593 5.593 0 0 0 122.143 46.32 Q 124.203 44.12 124.203 40.12 Q 124.203 37.56 123.403 35.42 Q 122.603 33.28 120.963 31.98 Q 119.323 30.68 116.683 30.68 Q 114.003 30.68 111.963 31.66 Q 109.923 32.64 108.503 34 Q 107.083 35.36 106.243 36.48 Q 106.243 36.84 106.303 37.76 Q 106.363 38.68 106.423 39.88 Q 106.483 41.08 106.563 42.28 Q 106.643 43.48 106.703 44.4 Q 106.763 45.32 106.803 45.68 Z M 61.643 50.76 Q 63.763 50.76 65.923 50.12 Q 68.083 49.48 69.863 48.44 Q 71.643 47.4 72.683 46.28 Q 72.603 44.6 72.583 43.08 A 74.072 74.072 0 0 1 72.577 42.107 A 49.845 49.845 0 0 1 72.603 40.4 A 17.993 17.993 0 0 0 70.162 39.782 A 66.398 66.398 0 0 0 68.903 39.54 Q 66.163 39.04 63.003 39.04 Q 60.203 39.04 57.823 39.7 Q 55.443 40.36 53.983 41.66 Q 52.523 42.96 52.523 44.92 Q 52.523 47.16 53.663 48.44 Q 54.803 49.72 56.863 50.24 Q 58.923 50.76 61.643 50.76 Z M 34.003 3.16 Q 34.003 5.32 33.863 8.08 Q 33.723 10.84 33.423 13.58 Q 33.123 16.32 32.683 18.44 Q 31.043 18.6 29.763 18.6 Q 28.963 18.6 28.143 18.54 Q 27.323 18.48 26.483 18.4 Q 26.163 16.88 25.763 14.46 Q 25.363 12.04 24.983 9.34 Q 24.603 6.64 24.363 4.28 Q 24.123 1.92 24.123 0.56 Q 25.643 0.28 27.223 0.14 Q 28.803 0 30.323 0 Q 32.243 0 33.883 0.24 Q 33.963 0.72 33.983 1.48 Q 34.003 2.24 34.003 3.16 Z"
class="svg-title-middle-word">
</path>
</g>
</svg>